# Blender v2.82 (sub 7) OBJ File: ''
# www.blender.org
o Cube_Cube.002
v -5.090000 -0.310001 9.060000
v -5.090000 0.309998 9.060000
v -5.090000 0.310001 -9.060000
v -5.090000 -0.309999 -9.060000
v 5.090000 0.310001 -9.060000
v 5.090000 -0.309999 -9.060000
v 5.090000 0.309998 9.060000
v 5.090000 -0.310001 9.060000
vn -1.0000 0.0000 0.0000
vn 0.0000 0.0000 -1.0000
vn 1.0000 0.0000 0.0000
vn 0.0000 0.0000 1.0000
vn 0.0000 -1.0000 -0.0000
vn 0.0000 1.0000 0.0000
s 1
f 1//1 2//1 3//1 4//1
f 4//2 3//2 5//2 6//2
f 6//3 5//3 7//3 8//3
f 8//4 7//4 2//4 1//4
f 4//5 6//5 8//5 1//5
f 5//6 3//6 2//6 7//6
