# Blender v2.79 (sub 0) OBJ File: ''
# www.blender.org
o cbox_largebox
v 42.299999 32.999996 24.700006
v 26.500000 32.999996 29.600006
v 31.400000 32.999992 45.600006
v 47.200001 32.999992 40.600006
v 42.299999 -0.000004 24.700001
v 42.299999 32.999996 24.700006
v 47.200001 32.999992 40.600006
v 47.200001 -0.000007 40.600002
v 47.200001 -0.000007 40.600002
v 47.200001 32.999992 40.600006
v 31.400000 32.999992 45.600006
v 31.400000 -0.000007 45.600002
v 31.400000 -0.000007 45.600002
v 31.400000 32.999992 45.600006
v 26.500000 32.999996 29.600006
v 26.500000 -0.000005 29.600000
v 26.500000 -0.000005 29.600000
v 26.500000 32.999996 29.600006
v 42.299999 32.999996 24.700006
v 42.299999 -0.000004 24.700001
v 47.200001 -0.000007 40.600002
v 31.400000 -0.000007 45.600002
v 26.500000 -0.000005 29.600000
v 42.299999 -0.000004 24.700001
vn 0.0000 1.0000 0.0000
vn 0.9556 0.0000 -0.2945
vn 0.3017 -0.0000 0.9534
vn -0.9562 -0.0000 0.2928
vn -0.2962 0.0000 -0.9551
vn -0.0000 -1.0000 -0.0000
s 1
f 1//1 2//1 3//1
f 1//1 3//1 4//1
f 5//2 6//2 7//2
f 5//2 7//2 8//2
f 9//3 10//3 11//3
f 9//3 11//3 12//3
f 13//4 14//4 15//4
f 13//4 15//4 16//4
f 17//5 18//5 19//5
f 17//5 19//5 20//5
f 21//6 22//6 23//6
f 21//6 23//6 24//6
