# Blender v2.82 (sub 7) OBJ File: ''
# www.blender.org
o cbox_largebox
v 5.449993 16.499998 -10.424991
v -10.350006 16.499996 -5.524991
v -5.450006 16.499990 10.475009
v 10.349995 16.499992 5.475009
v 5.449993 -16.500002 -10.425002
v 5.449993 16.499998 -10.424991
v 10.349995 16.499992 5.475009
v 10.349995 -16.500008 5.474999
v 10.349995 -16.500008 5.474999
v 10.349995 16.499992 5.475009
v -5.450006 16.499990 10.475009
v -5.450006 -16.500010 10.474999
v -5.450006 -16.500010 10.474999
v -5.450006 16.499990 10.475009
v -10.350006 16.499996 -5.524991
v -10.350006 -16.500006 -5.525002
v -10.350006 -16.500006 -5.525002
v -10.350006 16.499996 -5.524991
v 5.449993 16.499998 -10.424991
v 5.449993 -16.500002 -10.425002
v 10.349995 -16.500008 5.474999
v -5.450006 -16.500010 10.474999
v -10.350006 -16.500006 -5.525002
v 5.449993 -16.500002 -10.425002
vn -0.0000 1.0000 0.0000
vn 0.9556 0.0000 -0.2945
vn 0.3017 -0.0000 0.9534
vn -0.9562 -0.0000 0.2928
vn -0.2962 0.0000 -0.9551
vn 0.0000 -1.0000 -0.0000
s 1
f 1//1 2//1 3//1
f 1//1 3//1 4//1
f 5//2 6//2 7//2
f 5//2 7//2 8//2
f 9//3 10//3 11//3
f 9//3 11//3 12//3
f 13//4 14//4 15//4
f 13//4 15//4 16//4
f 17//5 18//5 19//5
f 17//5 19//5 20//5
f 21//6 22//6 23//6
f 21//6 23//6 24//6
